PathFileType	4	(X/Y/Z)	Patient4_TMGait_0pt6_02_left_16.trc.trc
DataRate	CameraRate	NumFrames	NumMarkers	Units	OrigDataRate	OrigDataStartFrame	OrigNumFrames
80.459770114943	80.459770114943	6	33	mm	80.459770114943	53	       141
Frame#	Time	Sacral			L.Shoulder			Chest			R.Shoulder			Neck			R.ASIS			L.ASIS			R.Thigh.Superior			R.Thigh.Lateral			R.Thigh.Inferior			R.Patella			L.Thigh.Superior			L.Thigh.Lateral			L.Thigh.Inferior			L.Patella			L.Shank.Superior			L.Shank.Lateral			L.Shank.Inferior			R.Shank.Superior			R.Shank.Lateral			R.Shank.Inferior			R.Heel			R.Midfoot.Superior			R.Midfoot.Lateral			R.Toe			L.Heel			L.Midfoot.Lateral			L.Midfoot.Superior			L.Toe			L.Elbow			L.Wrist			R.Elbow			R.Wrist			
		X1	Y1	Z1	X2	Y2	Z2	X3	Y3	Z3	X4	Y4	Z4	X5	Y5	Z5	X6	Y6	Z6	X7	Y7	Z7	X8	Y8	Z8	X9	Y9	Z9	X10	Y10	Z10	X11	Y11	Z11	X12	Y12	Z12	X13	Y13	Z13	X14	Y14	Z14	X15	Y15	Z15	X16	Y16	Z16	X17	Y17	Z17	X18	Y18	Z18	X19	Y19	Z19	X20	Y20	Z20	X21	Y21	Z21	X22	Y22	Z22	X23	Y23	Z23	X24	Y24	Z24	X25	Y25	Z25	X26	Y26	Z26	X27	Y27	Z27	X28	Y28	Z28	X29	Y29	Z29	X30	Y30	Z30	X31	Y31	Z31	X32	Y32	Z32	X33	Y33	Z33	

53	20.286285714286	824.079831721099	1012.784272370094	427.464127649536	1016.627256410043	1434.562725535870	238.975804764434	1112.870649624339	1367.355822382722	404.207769597860	1025.266907451790	1448.192004991949	572.345889389586	1010.301963595230	1499.275475522878	388.707046937840	1048.581318048018	952.888724518243	549.156569639906	1043.492936950566	964.565080374675	275.572705382280	1144.812175403151	796.293618025701	510.473719633659	1121.488282092500	672.326587464351	583.079863471212	1209.303808212688	642.493456896073	497.369132968139	1241.877552518023	531.134826492408	517.496311330718	1087.517991906001	751.845604449767	308.886686862083	996.944672291226	638.827263239365	249.116488721385	1075.794210017561	559.312572144596	316.814548640876	1072.563171644037	489.804923708011	327.919628368005	1047.310703283290	418.999913401355	319.178868231132	958.855819400075	303.829228186901	268.599270917188	1008.923671517497	194.074339820631	342.436728066058	1174.732558994196	448.988445638563	527.654377440884	1062.294460786419	394.049871558870	592.604372379723	1058.501062422099	285.196771713458	543.212817591538	865.845468824230	196.672510647147	522.309430540548	1042.839319350372	165.480213630639	560.169384289625	935.356389327352	150.289022482928	596.424740970489	1122.678707525702	63.773962615591	587.735341142627	880.392453652177	38.514787417250	386.858020308125	953.247154261087	35.335956961329	304.922170984123	1036.653199325159	96.631725238381	330.969724623042	1165.002476254273	44.617579883785	300.819310750354	1014.717572677813	1080.093133490738	117.394057058289	1167.032559550387	867.093796810396	114.525051245212	975.417259390413	1103.638442381022	696.589288507497	1071.913247975891	860.554082573007	690.664345141270	
54	20.298714285714	823.251778966954	1012.628377436272	426.184925638106	1017.821540438687	1434.885582483617	239.220684945692	1112.517331926726	1367.156271012134	405.133350843480	1023.574513532292	1447.620693221720	572.680968900286	1010.399430027614	1499.335962474727	389.084797117985	1047.025351599359	953.506199160695	549.429338522748	1043.888468558439	964.658628711714	275.530244495134	1144.745478728348	798.638487256824	510.647866252780	1122.743426864279	674.480860140351	583.306274549108	1210.387127857066	645.397304459539	497.250272337469	1244.995287438907	535.665304243585	517.569112861606	1086.251679803737	750.978530030243	309.739541077688	995.149243893429	638.500782789424	249.184675209747	1072.719196636661	558.450349891815	317.583893331470	1068.886828296462	488.865712042696	328.675906354963	1043.104806078406	418.139425200238	319.756652633167	953.952308181662	303.710121884501	268.786467865890	1002.477938548738	193.546207392456	342.900617357463	1181.376007005555	451.610159349782	528.216752878540	1072.223110562875	391.303849435484	593.842204828864	1073.610556554658	282.232799282691	544.544357441247	885.522759067392	184.711429246713	524.630269282557	1063.926331996584	161.366005794025	561.621410155443	957.395100773065	141.250683762028	598.394364115195	1148.334694476344	63.239272966498	588.529397730270	872.889898147952	38.468224559756	386.847831015395	945.757304236595	35.336765067262	304.929687048537	1029.203979880274	96.578898773234	331.135574721218	1157.530332503573	44.525708391186	300.866607778622	1019.673830706590	1081.201246795790	116.002044328318	1180.038280468491	874.214620333299	114.444935501145	967.400900240357	1104.332086808154	697.317419872211	1047.210172142368	854.757073697254	699.596317785965	
55	20.311142857143	822.485724045618	1012.478821610251	424.994511477072	1019.112834995261	1435.104186290497	239.572695508077	1112.284378580410	1366.867354384812	406.145264084864	1022.043212353273	1447.018456412399	573.081481627318	1010.603106418820	1499.314988999280	389.546580454359	1045.496479109070	953.934460910457	549.799960650731	1044.273082655617	964.625380966890	275.606234173430	1144.389811618728	800.450584470915	511.120808011114	1123.250819963259	676.136445764663	583.816040313853	1210.746975697186	647.594736917355	497.547478342536	1247.171871880346	539.695358776510	518.025139747461	1084.919330758294	750.060994346350	310.655711319865	993.253333557103	638.156284619557	249.280949090316	1069.488191596716	557.552105765113	318.359932074386	1065.038222905820	487.924230376906	329.413142670799	1038.750009254093	417.272278187907	320.317135452491	948.919911834850	303.567383762994	268.978358077488	995.952934054333	193.015898932668	343.349981627203	1187.340958530451	453.886068149685	529.063519155218	1081.964581789527	388.086899877274	595.340776318583	1088.883610811554	279.092721628295	546.040513845461	906.149557745729	172.279123989261	526.970576171405	1085.632327969054	157.308246335845	563.131212685831	980.349443184853	132.056868021851	600.373194566192	1174.695754168753	63.252350806842	589.423972645891	865.393742139359	38.415682601393	386.835132431952	938.262112346785	35.328363168842	304.936599624292	1021.748157950382	96.525012289933	331.297172333912	1150.050563003880	44.444971248426	300.915437870361	1024.199896598446	1082.249185878369	114.777166482278	1192.548904207246	881.763217959154	114.741473259291	959.413686473283	1105.262690644470	698.152017946000	1023.223816743467	851.021607361467	707.751143709547	
56	20.323571428571	821.791984980485	1012.364466441760	423.890150704216	1020.495848739790	1435.225133394324	240.030629720122	1112.186215144641	1366.502900930221	407.234915699132	1020.708069097233	1446.413364807720	573.548859155997	1010.930581494539	1499.222954688867	390.088405335551	1044.016792891170	954.185985919398	550.265966497279	1044.588619097304	964.433112567984	275.824838337508	1143.728653335239	801.707868051006	511.867041758909	1122.986016533267	677.271370041879	584.615227263153	1210.378812601432	649.066519174374	498.279282088573	1248.397254380332	543.190907921678	518.857603386335	1083.508254383943	749.098518782960	311.642857544447	991.237112836540	637.808819491934	249.405066418707	1066.077772456795	556.621392038477	319.137269020277	1060.986646526051	486.989537563498	330.132339358066	1034.224549267470	416.415378471225	320.860212283968	943.748796315423	303.409515795930	269.168927991873	989.356858596113	192.495359062687	343.778658621793	1192.591325674918	455.833035360973	530.174200945082	1091.519418783011	384.492699255613	597.100597464029	1104.235747009147	275.935060563493	547.666732457688	927.665847181503	159.702369147692	529.334373684930	1107.838441894595	153.503537639295	564.637125629309	1004.134442395505	122.966065374425	602.311456959140	1201.549135481348	63.961206066555	590.259082512292	857.901913499177	38.364676123205	386.817964905338	930.762920540947	35.313612516669	304.943365184264	1014.287762423850	96.468601553796	331.453479842036	1142.565108713021	44.365795074125	300.964345686717	1028.310972778497	1083.209871287855	113.740605544735	1204.506527921748	889.702205149673	115.408948933137	951.424986592857	1106.483497805250	699.112115175603	1000.227184518085	849.162964983836	715.076697501847	
57	20.336000000000	821.186753676439	1012.304894419140	422.876236109872	1021.963164876228	1435.257390978799	240.592336235761	1112.233863814872	1366.078039656350	408.393005945732	1019.600123720149	1445.832498365544	574.085079973251	1011.395159584035	1499.071639984869	390.705590698211	1042.612146357729	954.279906523879	550.829423274593	1044.787777574244	964.061673909477	276.212457904333	1142.752779219653	802.395640094032	512.868032666619	1121.933410074003	677.871934678307	585.699562559186	1209.289460817681	649.809798054894	499.452805768658	1248.670910199366	546.129973673214	520.045164337011	1082.004509357608	748.095395997262	312.707030660595	989.086850566434	637.470047836282	249.559728815659	1062.475055465153	555.663623475802	319.913320821886	1056.714999215100	486.070130817770	330.833556197212	1029.516795886528	415.584181283464	321.386575067197	938.435761716139	303.246075710609	269.354301130157	982.699411152598	191.996104728432	344.180890675025	1197.093760815729	457.471827855510	531.523381992854	1100.865219418869	380.621065633392	599.109941186513	1119.553709820315	272.908231563022	549.386982403114	949.950700404863	147.298254922173	531.720785374084	1130.385116495137	150.125659548840	566.081289684806	1028.607961967972	114.220512697774	604.163511636018	1228.646512933924	65.473411018101	590.891216934505	850.411792197251	38.323555138906	386.795106140767	923.261455495576	35.296151985491	304.950398369233	1006.825240296471	96.409117709839	331.603111437246	1135.076253610860	44.279616813693	301.011921750515	1032.030347147742	1084.061345498310	112.916792618590	1215.857674371359	897.983287235079	116.439492011203	943.435708266397	1108.041897541114	700.213596875748	978.433730589368	848.945480703078	721.557313815817	
58	20.348428571429	820.690542726068	1012.306851977984	421.966097114553	1023.505057438784	1435.210628975681	241.255066874262	1112.433529900206	1365.606763118252	409.610257220914	1018.743017179172	1445.297617354126	574.691682447921	1012.003659091604	1498.872061632020	391.393576630634	1041.311674400496	954.238584312785	551.496393784879	1044.851341028027	963.513275464299	276.790426706521	1141.464864371611	802.508062190049	514.113217285368	1120.095332243654	677.933892738536	587.054174111583	1207.501854914104	649.838670052411	501.059370302481	1248.006242479299	548.502664509884	521.552466413606	1080.396845566441	747.054262724895	313.850578329989	986.795697625677	637.146931125056	249.750417410392	1058.678724519732	554.684838733437	320.687478509429	1052.221246348283	485.173098091640	331.515823192790	1024.626137807943	414.791262148681	321.897680597802	932.984487540843	303.086891290676	269.533000957914	975.990357593772	191.527958232531	344.552060178206	1200.820051267502	458.822239780846	533.083441240632	1109.947214814246	376.573475281053	601.341005342544	1134.689911180481	270.140192275060	551.165458433266	972.808246689772	135.358943039864	534.113289582085	1153.059113227491	147.315014968127	567.416651917022	1053.551931895918	106.034334138283	605.887047759407	1255.693032282930	67.847762994900	591.216886884665	842.921133437752	38.300521862924	386.766265108854	915.759659041355	35.280048137915	304.958149891395	999.363377178780	96.346789792456	331.744530041637	1127.586436185319	44.179447824544	301.056854872146	1035.387980851007	1084.787315231578	112.330789399128	1226.556060237291	906.546621781864	117.822347651175	935.477045791449	1109.969898794314	701.463616579207	957.994337635265	850.102446090538	727.204241684048	
